<mxfile host="app.diagrams.net" modified="2024-03-21T08:09:14.215Z" agent="Mozilla/5.0 (Windows NT 10.0; Win64; x64) AppleWebKit/537.36 (KHTML, like Gecko) Chrome/122.0.0.0 Safari/537.36" etag="bGC6hNAWXpsa09ctOBdw" version="22.1.16" type="device">
  <diagram name="Trang-1" id="vEqfixNH55xieeFZCQpO">
    <mxGraphModel dx="636" dy="321" grid="0" gridSize="10" guides="1" tooltips="1" connect="1" arrows="1" fold="1" page="1" pageScale="1" pageWidth="827" pageHeight="1169" math="0" shadow="0">
      <root>
        <mxCell id="0" />
        <mxCell id="1" parent="0" />
        <mxCell id="2SGuvcq9iKbvQjn8U9QS-12" style="edgeStyle=orthogonalEdgeStyle;rounded=0;orthogonalLoop=1;jettySize=auto;html=1;exitX=1;exitY=0.5;exitDx=0;exitDy=0;entryX=0;entryY=0.5;entryDx=0;entryDy=0;endArrow=none;endFill=0;" edge="1" parent="1" source="2SGuvcq9iKbvQjn8U9QS-1" target="2SGuvcq9iKbvQjn8U9QS-10">
          <mxGeometry relative="1" as="geometry" />
        </mxCell>
        <mxCell id="2SGuvcq9iKbvQjn8U9QS-13" style="edgeStyle=orthogonalEdgeStyle;rounded=0;orthogonalLoop=1;jettySize=auto;html=1;exitX=1;exitY=0.5;exitDx=0;exitDy=0;entryX=0;entryY=0.5;entryDx=0;entryDy=0;endArrow=none;endFill=0;" edge="1" parent="1" source="2SGuvcq9iKbvQjn8U9QS-1" target="2SGuvcq9iKbvQjn8U9QS-2">
          <mxGeometry relative="1" as="geometry" />
        </mxCell>
        <mxCell id="2SGuvcq9iKbvQjn8U9QS-1" value="Cải tiến chất lượng đánh giá sản phẩm" style="rounded=0;whiteSpace=wrap;html=1;" vertex="1" parent="1">
          <mxGeometry x="38" y="244" width="120" height="60" as="geometry" />
        </mxCell>
        <mxCell id="2SGuvcq9iKbvQjn8U9QS-20" style="edgeStyle=orthogonalEdgeStyle;rounded=0;orthogonalLoop=1;jettySize=auto;html=1;exitX=1;exitY=0.5;exitDx=0;exitDy=0;entryX=0;entryY=0.5;entryDx=0;entryDy=0;" edge="1" parent="1" source="2SGuvcq9iKbvQjn8U9QS-2" target="2SGuvcq9iKbvQjn8U9QS-19">
          <mxGeometry relative="1" as="geometry" />
        </mxCell>
        <mxCell id="2SGuvcq9iKbvQjn8U9QS-2" value="Cải tiến đánh giá sản phẩm qua Video" style="rounded=0;whiteSpace=wrap;html=1;" vertex="1" parent="1">
          <mxGeometry x="230" y="97.5" width="120" height="60" as="geometry" />
        </mxCell>
        <mxCell id="2SGuvcq9iKbvQjn8U9QS-24" style="edgeStyle=orthogonalEdgeStyle;rounded=0;orthogonalLoop=1;jettySize=auto;html=1;exitX=1;exitY=0.5;exitDx=0;exitDy=0;entryX=0;entryY=0.5;entryDx=0;entryDy=0;" edge="1" parent="1" source="2SGuvcq9iKbvQjn8U9QS-10" target="2SGuvcq9iKbvQjn8U9QS-22">
          <mxGeometry relative="1" as="geometry" />
        </mxCell>
        <mxCell id="2SGuvcq9iKbvQjn8U9QS-10" value="Cải tiến đánh giá sản phẩm sau khi sử dụng" style="rounded=0;whiteSpace=wrap;html=1;" vertex="1" parent="1">
          <mxGeometry x="230" y="378.5" width="120" height="60" as="geometry" />
        </mxCell>
        <mxCell id="2SGuvcq9iKbvQjn8U9QS-19" value="&lt;div&gt;- Bạn đã sử dụng chức năng đánh giá sản phẩm bằng video hoặc livestream trên Shopee chưa?&lt;/div&gt;&lt;div&gt;- Theo bạn, chức năng này có giúp bạn trải nghiệm sản phẩm một cách trực quan hơn không? Tại sao?&lt;/div&gt;&lt;div&gt;- Chất lượng video và âm thanh của các đánh giá sản phẩm trên Shopee có đáp ứng được yêu cầu của bạn không?&lt;/div&gt;&lt;div&gt;- Bạn thấy những đánh giá sản phẩm bằng video hoặc livestream từ người dùng khác có giúp ích cho quyết định mua hàng của bạn không?&lt;/div&gt;&lt;div&gt;- Có gì bạn mong muốn Shopee cải thiện hoặc thêm vào tính năng đánh giá sản phẩm bằng video và livestream trong tương lai?&lt;/div&gt;" style="rounded=0;whiteSpace=wrap;html=1;align=left;" vertex="1" parent="1">
          <mxGeometry x="459" y="40" width="339" height="175" as="geometry" />
        </mxCell>
        <mxCell id="2SGuvcq9iKbvQjn8U9QS-21" value="Phương pháp &lt;br&gt;phỏng vấn" style="text;html=1;strokeColor=none;fillColor=none;align=center;verticalAlign=middle;whiteSpace=wrap;rounded=0;" vertex="1" parent="1">
          <mxGeometry x="356" y="95" width="86" height="30" as="geometry" />
        </mxCell>
        <mxCell id="2SGuvcq9iKbvQjn8U9QS-22" value="&lt;div&gt;- Bạn đã sử dụng chức năng đánh giá sản phẩm trên Shopee sau khi mua hàng chưa?&lt;/div&gt;&lt;div&gt;- Cảm nhận của bạn về quá trình đánh giá sản phẩm trên ứng dụng Shopee là như thế nào?&lt;/div&gt;&lt;div&gt;- Chức năng đánh giá sản phẩm trên Shopee có đáp ứng đủ nhu cầu phản hồi của bạn không?&lt;/div&gt;&lt;div&gt;- Mức độ hài lòng của bạn về cách Shopee xử lý và phản hồi đối với các đánh giá sản phẩm là như thế nào?&lt;/div&gt;&lt;div&gt;- Bạn thấy những đánh giá từ người dùng khác có giúp ích cho quyết định mua hàng của bạn không?&lt;/div&gt;&lt;div&gt;&lt;br&gt;&lt;/div&gt;" style="rounded=0;whiteSpace=wrap;html=1;align=left;" vertex="1" parent="1">
          <mxGeometry x="459" y="326" width="338" height="165" as="geometry" />
        </mxCell>
        <mxCell id="2SGuvcq9iKbvQjn8U9QS-23" value="Phương pháp bảng câu hỏi" style="text;html=1;strokeColor=none;fillColor=none;align=center;verticalAlign=middle;whiteSpace=wrap;rounded=0;" vertex="1" parent="1">
          <mxGeometry x="356" y="374" width="86" height="30" as="geometry" />
        </mxCell>
        <mxCell id="2SGuvcq9iKbvQjn8U9QS-43" style="edgeStyle=orthogonalEdgeStyle;rounded=0;orthogonalLoop=1;jettySize=auto;html=1;exitX=1;exitY=0.5;exitDx=0;exitDy=0;endArrow=none;endFill=0;" edge="1" parent="1" source="2SGuvcq9iKbvQjn8U9QS-42" target="2SGuvcq9iKbvQjn8U9QS-44">
          <mxGeometry relative="1" as="geometry">
            <mxPoint x="207.4285888671875" y="543.5714634486608" as="targetPoint" />
            <Array as="points">
              <mxPoint x="202" y="618" />
              <mxPoint x="202" y="541" />
            </Array>
          </mxGeometry>
        </mxCell>
        <mxCell id="2SGuvcq9iKbvQjn8U9QS-42" value="Xây dựng &lt;br&gt;Diễn đàn người dùng" style="rounded=0;whiteSpace=wrap;html=1;" vertex="1" parent="1">
          <mxGeometry x="41" y="588" width="120" height="60" as="geometry" />
        </mxCell>
        <mxCell id="2SGuvcq9iKbvQjn8U9QS-44" value="Xây dựng giao diện trang" style="rounded=0;whiteSpace=wrap;html=1;" vertex="1" parent="1">
          <mxGeometry x="235.9985888671875" y="511.0014634486608" width="120" height="60" as="geometry" />
        </mxCell>
        <mxCell id="2SGuvcq9iKbvQjn8U9QS-45" value="Xây dựng giao diện trang" style="rounded=0;whiteSpace=wrap;html=1;" vertex="1" parent="1">
          <mxGeometry x="235.9985888671875" y="617.0014634486608" width="120" height="60" as="geometry" />
        </mxCell>
        <mxCell id="2SGuvcq9iKbvQjn8U9QS-46" style="edgeStyle=orthogonalEdgeStyle;rounded=0;orthogonalLoop=1;jettySize=auto;html=1;exitX=1;exitY=0.5;exitDx=0;exitDy=0;endArrow=none;endFill=0;entryX=0;entryY=0.5;entryDx=0;entryDy=0;" edge="1" parent="1" source="2SGuvcq9iKbvQjn8U9QS-47" target="2SGuvcq9iKbvQjn8U9QS-48">
          <mxGeometry relative="1" as="geometry">
            <mxPoint x="201.4285888671875" y="1282.5714634486608" as="targetPoint" />
            <Array as="points">
              <mxPoint x="196" y="1476" />
              <mxPoint x="196" y="1323" />
            </Array>
          </mxGeometry>
        </mxCell>
        <mxCell id="2SGuvcq9iKbvQjn8U9QS-50" style="edgeStyle=orthogonalEdgeStyle;rounded=0;orthogonalLoop=1;jettySize=auto;html=1;exitX=1;exitY=0.5;exitDx=0;exitDy=0;entryX=0;entryY=0.5;entryDx=0;entryDy=0;endArrow=none;endFill=0;" edge="1" parent="1" source="2SGuvcq9iKbvQjn8U9QS-47" target="2SGuvcq9iKbvQjn8U9QS-49">
          <mxGeometry relative="1" as="geometry" />
        </mxCell>
        <mxCell id="2SGuvcq9iKbvQjn8U9QS-47" value="Cải tiến chức năng Bán Hàng" style="rounded=0;whiteSpace=wrap;html=1;" vertex="1" parent="1">
          <mxGeometry x="34" y="1446" width="120" height="60" as="geometry" />
        </mxCell>
        <mxCell id="2SGuvcq9iKbvQjn8U9QS-52" value="" style="edgeStyle=orthogonalEdgeStyle;rounded=0;orthogonalLoop=1;jettySize=auto;html=1;" edge="1" parent="1" source="2SGuvcq9iKbvQjn8U9QS-48" target="2SGuvcq9iKbvQjn8U9QS-51">
          <mxGeometry relative="1" as="geometry" />
        </mxCell>
        <mxCell id="2SGuvcq9iKbvQjn8U9QS-48" value="Cải tiến giao diện các gian hàng" style="rounded=0;whiteSpace=wrap;html=1;" vertex="1" parent="1">
          <mxGeometry x="235.9985888671875" y="1293.0014634486608" width="120" height="60" as="geometry" />
        </mxCell>
        <mxCell id="2SGuvcq9iKbvQjn8U9QS-54" style="edgeStyle=orthogonalEdgeStyle;rounded=0;orthogonalLoop=1;jettySize=auto;html=1;exitX=1;exitY=0.5;exitDx=0;exitDy=0;entryX=0;entryY=0.5;entryDx=0;entryDy=0;" edge="1" parent="1" source="2SGuvcq9iKbvQjn8U9QS-49" target="2SGuvcq9iKbvQjn8U9QS-53">
          <mxGeometry relative="1" as="geometry" />
        </mxCell>
        <mxCell id="2SGuvcq9iKbvQjn8U9QS-49" value="Cải tiến tính năng Chat với người sử dụng" style="rounded=0;whiteSpace=wrap;html=1;" vertex="1" parent="1">
          <mxGeometry x="238.9985888671875" y="1594.5014634486608" width="120" height="60" as="geometry" />
        </mxCell>
        <mxCell id="2SGuvcq9iKbvQjn8U9QS-51" value="&lt;font style=&quot;font-size: 14px;&quot; face=&quot;Helvetica&quot;&gt;-&amp;nbsp;Bạn đã nhận được phản hồi nào từ khách hàng về giao diện của gian hàng của bạn trên Shopee chưa?&lt;br&gt;-&amp;nbsp;Tính năng nào trong giao diện bạn nghĩ cần được cải thiện hoặc thêm vào để tăng trải nghiệm mua sắm cho khách hàng?&lt;br&gt;-&amp;nbsp;Theo bạn, điểm mạnh và điểm yếu của giao diện hiện tại của gian hàng của bạn là gì?&lt;br&gt;-&amp;nbsp;Bạn có gặp bất kỳ khó khăn nào trong việc quản lý hoặc tùy chỉnh giao diện gian hàng trên Shopee không?&lt;br&gt;-&amp;nbsp;&lt;/font&gt;&lt;span style=&quot;font-size: 14px; font-family: ahrWXn85Rlz0F-WvfhpV; background-color: rgb(255, 255, 255); color: rgb(13, 13, 13);&quot;&gt;Theo bạn, những yếu tố nào tạo nên một giao diện gian hàng hiệu quả và thu hút khách hàng trên Shopee?&lt;br&gt;&lt;/span&gt;&lt;span style=&quot;font-size: 14px; font-family: ahrWXn85Rlz0F-WvfhpV; background-color: rgb(255, 255, 255); color: rgb(13, 13, 13);&quot;&gt;- Bạn đã tìm hiểu và áp dụng các xu hướng thiết kế giao diện mới nhất vào gian hàng của mình chưa?&lt;/span&gt;&lt;span style=&quot;font-size: 14px; font-family: ahrWXn85Rlz0F-WvfhpV; background-color: rgb(255, 255, 255); color: rgb(13, 13, 13);&quot;&gt;&lt;br&gt;&lt;/span&gt;" style="rounded=0;whiteSpace=wrap;html=1;align=left;" vertex="1" parent="1">
          <mxGeometry x="442" y="1205" width="372" height="236" as="geometry" />
        </mxCell>
        <mxCell id="2SGuvcq9iKbvQjn8U9QS-53" value="&lt;font style=&quot;font-size: 12px;&quot;&gt;-&amp;nbsp;&lt;/font&gt;Bạn thấy cách giao tiếp qua tin nhắn trên Shopee hiệu quả như thế nào?&lt;br&gt;&lt;span style=&quot;background-color: rgb(255, 255, 255); color: rgb(13, 13, 13);&quot;&gt;- Bạn gặp những thách thức gì khi trò chuyện với khách hàng qua tính năng chat trên Shopee?&lt;br&gt;&lt;/span&gt;&lt;span style=&quot;background-color: rgb(255, 255, 255); color: rgb(13, 13, 13);&quot;&gt;- Bạn có gặp vấn đề gì trong việc hiển thị thông tin sản phẩm hoặc giao dịch qua tin nhắn trên Shopee không?&lt;br&gt;&lt;/span&gt;&lt;span style=&quot;background-color: rgb(255, 255, 255); color: rgb(13, 13, 13);&quot;&gt;- Bạn thấy có cách nào để cải thiện trải nghiệm giao tiếp của bạn trên Shopee không?&lt;br&gt;&lt;/span&gt;&lt;span style=&quot;background-color: rgb(255, 255, 255); color: rgb(13, 13, 13);&quot;&gt;- Bạn có gặp khó khăn gì trong việc giải quyết các tranh chấp hoặc khiếu nại từ khách hàng qua tin nhắn trên Shopee không?&lt;br&gt;&lt;/span&gt;&lt;span style=&quot;background-color: rgb(255, 255, 255); color: rgb(13, 13, 13);&quot;&gt;- Bạn sử dụng các công cụ hay tính năng nào để quản lý và tối ưu hóa việc giao tiếp với khách hàng trên Shopee?&lt;/span&gt;&lt;span style=&quot;background-color: rgb(255, 255, 255); color: rgb(13, 13, 13);&quot;&gt;&lt;br&gt;&lt;/span&gt;" style="rounded=0;whiteSpace=wrap;html=1;align=left;fontFamily=Helvetica;fontSize=12;" vertex="1" parent="1">
          <mxGeometry x="442" y="1537" width="372" height="175" as="geometry" />
        </mxCell>
        <mxCell id="2SGuvcq9iKbvQjn8U9QS-55" value="Phương pháp&lt;br&gt;phỏng vấn" style="text;html=1;strokeColor=none;fillColor=none;align=center;verticalAlign=middle;whiteSpace=wrap;rounded=0;" vertex="1" parent="1">
          <mxGeometry x="363" y="1279" width="76" height="30" as="geometry" />
        </mxCell>
        <mxCell id="2SGuvcq9iKbvQjn8U9QS-56" value="Phương pháp&lt;br&gt;bảng câu hỏi" style="text;html=1;strokeColor=none;fillColor=none;align=center;verticalAlign=middle;whiteSpace=wrap;rounded=0;" vertex="1" parent="1">
          <mxGeometry x="363" y="1588" width="76" height="30" as="geometry" />
        </mxCell>
        <mxCell id="2SGuvcq9iKbvQjn8U9QS-57" style="edgeStyle=orthogonalEdgeStyle;rounded=0;orthogonalLoop=1;jettySize=auto;html=1;exitX=1;exitY=0.5;exitDx=0;exitDy=0;endArrow=none;endFill=0;entryX=0;entryY=0.5;entryDx=0;entryDy=0;" edge="1" parent="1" source="2SGuvcq9iKbvQjn8U9QS-59" target="2SGuvcq9iKbvQjn8U9QS-61">
          <mxGeometry relative="1" as="geometry">
            <mxPoint x="997.4285888671875" y="1369.0714634486608" as="targetPoint" />
            <Array as="points">
              <mxPoint x="992" y="1562.5" />
              <mxPoint x="992" y="1409.5" />
            </Array>
          </mxGeometry>
        </mxCell>
        <mxCell id="2SGuvcq9iKbvQjn8U9QS-58" style="edgeStyle=orthogonalEdgeStyle;rounded=0;orthogonalLoop=1;jettySize=auto;html=1;exitX=1;exitY=0.5;exitDx=0;exitDy=0;entryX=0;entryY=0.5;entryDx=0;entryDy=0;endArrow=none;endFill=0;" edge="1" parent="1" source="2SGuvcq9iKbvQjn8U9QS-59" target="2SGuvcq9iKbvQjn8U9QS-63">
          <mxGeometry relative="1" as="geometry" />
        </mxCell>
        <mxCell id="2SGuvcq9iKbvQjn8U9QS-59" value="Cải tiến chức năng Mua Hàng" style="rounded=0;whiteSpace=wrap;html=1;" vertex="1" parent="1">
          <mxGeometry x="830" y="1532.5" width="120" height="60" as="geometry" />
        </mxCell>
        <mxCell id="2SGuvcq9iKbvQjn8U9QS-60" value="" style="edgeStyle=orthogonalEdgeStyle;rounded=0;orthogonalLoop=1;jettySize=auto;html=1;" edge="1" parent="1" source="2SGuvcq9iKbvQjn8U9QS-61" target="2SGuvcq9iKbvQjn8U9QS-64">
          <mxGeometry relative="1" as="geometry" />
        </mxCell>
        <mxCell id="2SGuvcq9iKbvQjn8U9QS-61" value="Cải tiến giao diện giỏ hàng" style="rounded=0;whiteSpace=wrap;html=1;" vertex="1" parent="1">
          <mxGeometry x="1031.9985888671874" y="1379.5014634486608" width="120" height="60" as="geometry" />
        </mxCell>
        <mxCell id="2SGuvcq9iKbvQjn8U9QS-62" style="edgeStyle=orthogonalEdgeStyle;rounded=0;orthogonalLoop=1;jettySize=auto;html=1;exitX=1;exitY=0.5;exitDx=0;exitDy=0;entryX=0;entryY=0.5;entryDx=0;entryDy=0;" edge="1" parent="1" source="2SGuvcq9iKbvQjn8U9QS-63" target="2SGuvcq9iKbvQjn8U9QS-65">
          <mxGeometry relative="1" as="geometry" />
        </mxCell>
        <mxCell id="2SGuvcq9iKbvQjn8U9QS-63" value="Cải tiến tính năng mua hàng" style="rounded=0;whiteSpace=wrap;html=1;" vertex="1" parent="1">
          <mxGeometry x="1034.9985888671874" y="1681.0014634486608" width="120" height="60" as="geometry" />
        </mxCell>
        <mxCell id="2SGuvcq9iKbvQjn8U9QS-64" value="- Bạn cảm thấy giao diện giỏ hàng hiện tại trên Shopee có dễ sử dụng không? Nếu không, điều gì làm bạn cảm thấy khó khăn?&lt;br&gt;- Bạn gặp những vấn đề gì khi xem và chỉnh sửa giỏ hàng trên Shopee?&lt;br&gt;- Bạn muốn thấy các tính năng nào được thêm vào hoặc cải thiện trong giao diện giỏ hàng của Shopee?&lt;br&gt;- Bạn có gặp khó khăn gì trong việc xử lý thanh toán và chọn phương thức vận chuyển trong giỏ hàng trên Shopee không?&lt;br&gt;- Bạn thấy có cách nào để tối ưu hóa trải nghiệm mua sắm của người dùng thông qua giao diện giỏ hàng không?" style="rounded=0;whiteSpace=wrap;html=1;align=left;" vertex="1" parent="1">
          <mxGeometry x="1247" y="1327" width="372" height="165" as="geometry" />
        </mxCell>
        <mxCell id="2SGuvcq9iKbvQjn8U9QS-65" value="&lt;font style=&quot;font-size: 12px;&quot;&gt;-&amp;nbsp;&lt;/font&gt;Bạn thấy cách tính năng mua hàng trên Shopee có hiệu quả không?&lt;br&gt;&lt;span style=&quot;background-color: rgb(255, 255, 255); color: rgb(13, 13, 13);&quot;&gt;- Bạn gặp những khó khăn gì khi mua hàng trên Shopee?&lt;br&gt;&lt;/span&gt;&lt;span style=&quot;background-color: rgb(255, 255, 255); color: rgb(13, 13, 13);&quot;&gt;- Bạn có gặp vấn đề gì trong việc hiển thị thông tin sản phẩm hoặc giao dịch qua tin nhắn trên Shopee không?&lt;br&gt;&lt;/span&gt;&lt;span style=&quot;background-color: rgb(255, 255, 255); color: rgb(13, 13, 13);&quot;&gt;- Bạn thấy có cách nào để cải thiện trải nghiệm mua hàng của bạn trên Shopee không?&lt;br&gt;&lt;/span&gt;&lt;span style=&quot;background-color: rgb(255, 255, 255); color: rgb(13, 13, 13);&quot;&gt;&lt;br&gt;&lt;/span&gt;" style="rounded=0;whiteSpace=wrap;html=1;align=left;fontFamily=Helvetica;fontSize=12;" vertex="1" parent="1">
          <mxGeometry x="1252" y="1648" width="372" height="126" as="geometry" />
        </mxCell>
        <mxCell id="2SGuvcq9iKbvQjn8U9QS-66" value="Phương pháp&lt;br&gt;phỏng vấn" style="text;html=1;strokeColor=none;fillColor=none;align=center;verticalAlign=middle;whiteSpace=wrap;rounded=0;" vertex="1" parent="1">
          <mxGeometry x="1159" y="1365.5" width="76" height="30" as="geometry" />
        </mxCell>
        <mxCell id="2SGuvcq9iKbvQjn8U9QS-67" value="Phương pháp&lt;br&gt;bảng câu hỏi" style="text;html=1;strokeColor=none;fillColor=none;align=center;verticalAlign=middle;whiteSpace=wrap;rounded=0;" vertex="1" parent="1">
          <mxGeometry x="1159" y="1674.5" width="76" height="30" as="geometry" />
        </mxCell>
        <mxCell id="2SGuvcq9iKbvQjn8U9QS-71" style="edgeStyle=orthogonalEdgeStyle;rounded=0;orthogonalLoop=1;jettySize=auto;html=1;exitX=1;exitY=0.5;exitDx=0;exitDy=0;endArrow=none;endFill=0;entryX=0;entryY=0.5;entryDx=0;entryDy=0;" edge="1" parent="1" source="2SGuvcq9iKbvQjn8U9QS-73" target="2SGuvcq9iKbvQjn8U9QS-75">
          <mxGeometry relative="1" as="geometry">
            <mxPoint x="1002.4285888671875" y="1834.0714634486608" as="targetPoint" />
            <Array as="points">
              <mxPoint x="980" y="2028" />
              <mxPoint x="980" y="1941" />
              <mxPoint x="1010" y="1941" />
            </Array>
          </mxGeometry>
        </mxCell>
        <mxCell id="2SGuvcq9iKbvQjn8U9QS-72" style="edgeStyle=orthogonalEdgeStyle;rounded=0;orthogonalLoop=1;jettySize=auto;html=1;exitX=1;exitY=0.5;exitDx=0;exitDy=0;entryX=0;entryY=0.5;entryDx=0;entryDy=0;endArrow=none;endFill=0;" edge="1" parent="1" source="2SGuvcq9iKbvQjn8U9QS-73" target="2SGuvcq9iKbvQjn8U9QS-77">
          <mxGeometry relative="1" as="geometry" />
        </mxCell>
        <mxCell id="2SGuvcq9iKbvQjn8U9QS-73" value="Cải tiến chức năng&amp;nbsp;&lt;br&gt;Ví điện tử" style="rounded=0;whiteSpace=wrap;html=1;" vertex="1" parent="1">
          <mxGeometry x="835" y="1997.5" width="120" height="60" as="geometry" />
        </mxCell>
        <mxCell id="2SGuvcq9iKbvQjn8U9QS-74" value="" style="edgeStyle=orthogonalEdgeStyle;rounded=0;orthogonalLoop=1;jettySize=auto;html=1;" edge="1" parent="1" source="2SGuvcq9iKbvQjn8U9QS-75" target="2SGuvcq9iKbvQjn8U9QS-78">
          <mxGeometry relative="1" as="geometry">
            <Array as="points">
              <mxPoint x="1191" y="1943" />
              <mxPoint x="1191" y="1940" />
            </Array>
          </mxGeometry>
        </mxCell>
        <mxCell id="2SGuvcq9iKbvQjn8U9QS-75" value="cải tiến chức năng&amp;nbsp;&lt;br&gt;quản lí tài chính" style="rounded=0;whiteSpace=wrap;html=1;" vertex="1" parent="1">
          <mxGeometry x="1009.9985888671874" y="1913.0014634486608" width="120" height="60" as="geometry" />
        </mxCell>
        <mxCell id="2SGuvcq9iKbvQjn8U9QS-77" value="Cải tiến tính bảo mật" style="rounded=0;whiteSpace=wrap;html=1;" vertex="1" parent="1">
          <mxGeometry x="1006" y="2148" width="106" height="60" as="geometry" />
        </mxCell>
        <mxCell id="2SGuvcq9iKbvQjn8U9QS-78" value="&lt;div&gt;-Tính năng quản lý tài chính của chúng tôi có giúp bạn tổ chức và theo dõi tình trạng tài chính của mình không? Nếu có, bạn đã tận dụng như thế nào?&lt;/div&gt;&lt;div&gt;&lt;span style=&quot;background-color: initial;&quot;&gt;-Bạn cảm thấy có đủ công cụ và tính năng để quản lý tài chính một cách hiệu quả không? Nếu không, bạn muốn thêm vào những tính năng nào?&lt;/span&gt;&lt;br&gt;&lt;/div&gt;&lt;div&gt;&lt;span style=&quot;background-color: initial;&quot;&gt;-Tính năng quản lý tài chính có giúp bạn theo dõi chi tiêu hàng ngày và lập kế hoạch ngân sách không? Nếu có, bạn cảm thấy nó có hữu ích không?&lt;/span&gt;&lt;br&gt;&lt;/div&gt;&lt;div&gt;&lt;span style=&quot;background-color: initial;&quot;&gt;-Bạn thấy việc theo dõi và phân loại chi tiêu trên nền tảng của chúng tôi dễ dàng hay không? Nếu không, bạn gặp những vấn đề gì?&lt;/span&gt;&lt;br&gt;&lt;/div&gt;&lt;div&gt;&lt;span style=&quot;background-color: initial;&quot;&gt;-Tính năng báo cáo và phân tích tài chính của chúng tôi có giúp bạn hiểu rõ hơn về tình hình tài chính của mình không? Bạn muốn nhận thêm thông tin nào từ báo cáo này?&lt;/span&gt;&lt;br&gt;&lt;/div&gt;&lt;div&gt;&lt;br&gt;&lt;/div&gt;" style="rounded=0;whiteSpace=wrap;html=1;align=left;" vertex="1" parent="1">
          <mxGeometry x="1218" y="1833" width="406" height="215" as="geometry" />
        </mxCell>
        <mxCell id="2SGuvcq9iKbvQjn8U9QS-79" value="&lt;div style=&quot;&quot;&gt;-Bạn cảm thấy hài lòng với mức độ bảo mật và an toàn của tài khoản của mình trên nền tảng của chúng tôi không?&lt;/div&gt;&lt;div style=&quot;&quot;&gt;&lt;span style=&quot;background-color: initial;&quot;&gt;-Bạn có gặp phải bất kỳ vấn đề nào liên quan đến bảo mật tài khoản hoặc giao dịch không? Nếu có, bạn đã thông báo cho chúng tôi không?Bạn có ý kiến gì về quy trình phòng ngừa gian lận và bảo mật thanh toán trên nền tảng của chúng tôi?&lt;/span&gt;&lt;br&gt;&lt;/div&gt;&lt;div style=&quot;&quot;&gt;&lt;span style=&quot;background-color: initial;&quot;&gt;-Bạn cảm thấy thông tin về bảo mật và an toàn trên nền tảng của chúng tôi được cung cấp đầy đủ và rõ ràng không?&lt;/span&gt;&lt;br&gt;&lt;/div&gt;&lt;div style=&quot;&quot;&gt;&lt;span style=&quot;background-color: initial;&quot;&gt;-Bạn đã từng gặp phải các trường hợp lừa đảo hoặc vi phạm bảo mật trên nền tảng của chúng tôi chưa? Nếu có, bạn đã báo cáo cho chúng tôi không?&lt;/span&gt;&lt;br&gt;&lt;/div&gt;&lt;div style=&quot;&quot;&gt;&lt;span style=&quot;background-color: initial;&quot;&gt;-Bạn có gợi ý nào để cải thiện tính bảo mật và an toàn trên nền tảng của chúng tôi không?&lt;/span&gt;&lt;br&gt;&lt;/div&gt;" style="rounded=0;whiteSpace=wrap;html=1;align=left;fontFamily=Helvetica;fontSize=12;" vertex="1" parent="1">
          <mxGeometry x="1219" y="2054" width="405" height="204.5" as="geometry" />
        </mxCell>
        <mxCell id="2SGuvcq9iKbvQjn8U9QS-80" value="Phương pháp&lt;br&gt;phỏng vấn" style="text;html=1;strokeColor=none;fillColor=none;align=center;verticalAlign=middle;whiteSpace=wrap;rounded=0;" vertex="1" parent="1">
          <mxGeometry x="1135" y="1905" width="76" height="30" as="geometry" />
        </mxCell>
        <mxCell id="2SGuvcq9iKbvQjn8U9QS-81" value="Phương pháp&lt;br&gt;bảng câu hỏi" style="text;html=1;strokeColor=none;fillColor=none;align=center;verticalAlign=middle;whiteSpace=wrap;rounded=0;" vertex="1" parent="1">
          <mxGeometry x="1118" y="2141.25" width="93" height="30" as="geometry" />
        </mxCell>
        <mxCell id="2SGuvcq9iKbvQjn8U9QS-87" style="edgeStyle=orthogonalEdgeStyle;rounded=0;orthogonalLoop=1;jettySize=auto;html=1;exitX=1;exitY=0.5;exitDx=0;exitDy=0;entryX=0.003;entryY=0.611;entryDx=0;entryDy=0;entryPerimeter=0;" edge="1" parent="1" source="2SGuvcq9iKbvQjn8U9QS-77" target="2SGuvcq9iKbvQjn8U9QS-79">
          <mxGeometry relative="1" as="geometry" />
        </mxCell>
      </root>
    </mxGraphModel>
  </diagram>
</mxfile>
